<svg width="51" height="50" viewBox="0 0 51 50" fill="none" xmlns="http://www.w3.org/2000/svg">
<path d="M26.16 6.24585C26.1777 6.24589 26.1969 6.24593 26.2175 6.24598L26.4387 6.24667C29.0068 6.25611 42.0228 6.35045 45.5322 7.29392C47.6835 7.87093 49.3775 9.57142 49.9525 11.73C50.2691 12.9159 50.4897 14.4921 50.6434 16.1132L50.6733 16.438C50.6975 16.7089 50.7198 16.9804 50.7405 17.251L50.7646 17.575C50.97 20.4316 50.9939 23.1047 50.9967 23.6896L50.997 23.7685C50.9971 23.7749 50.9971 23.7855 50.9971 23.7855V23.8298C50.9971 23.8298 50.9971 23.8404 50.997 23.8468L50.9967 23.9257C50.9938 24.5327 50.9681 27.3886 50.7405 30.3645L50.7149 30.6896L50.6876 31.0149C50.5328 32.8042 50.3007 34.581 49.9525 35.8853C49.3775 38.0439 47.6835 39.7448 45.5322 40.3214C41.9058 41.2967 28.1285 41.365 26.2175 41.3697L26.0703 41.37C26.0582 41.37 26.0476 41.3701 26.0385 41.3701L25.9785 41.3701C25.9785 41.3701 25.9647 41.3701 25.9555 41.3701L25.7766 41.3697C24.8108 41.3673 20.8144 41.3487 16.6292 41.205L16.0941 41.1859C16.0048 41.1826 15.9155 41.1793 15.8262 41.1759L15.2905 41.1547L14.756 41.1321C11.2888 40.9799 7.98301 40.7304 6.46228 40.3214C4.31096 39.7448 2.61691 38.0439 2.04193 35.8853C1.6936 34.581 1.46138 32.8042 1.30656 31.0149L1.27926 30.6896L1.25361 30.3645C1.0342 27.4968 1.00234 24.7405 0.997721 24.0007L0.997168 23.8949C0.99713 23.8853 0.997097 23.8765 0.99707 23.8685V23.7468C0.997097 23.7388 0.99713 23.73 0.997168 23.7205L0.997721 23.6146C1.00191 22.9446 1.02843 20.6207 1.19639 18.058L1.21813 17.7365C1.22187 17.6827 1.22569 17.6289 1.22956 17.575L1.25361 17.251C1.27431 16.9804 1.29668 16.7089 1.32085 16.438L1.35073 16.1132C1.50456 14.4921 1.72527 12.9159 2.04193 11.73C2.61691 9.57142 4.31096 7.87093 6.46228 7.29392C7.98301 6.88508 11.2888 6.63569 14.756 6.48357L15.2905 6.46092L15.8262 6.43976C15.9155 6.43635 16.0048 6.43301 16.0941 6.42972L16.6292 6.41069C20.5473 6.27619 24.2998 6.25128 25.5553 6.24667L25.7766 6.24598C25.7971 6.24593 25.8163 6.24589 25.8341 6.24585H26.16ZM20.9972 16.2808V31.3345L33.987 23.8081L20.9972 16.2808Z" fill="black"/>
</svg>
